HIERARCHY
ROOT joint_Root
{
	OFFSET 0.0 0.0 0.0
	CHANNELS 6 Xposition Yposition Zposition Zrotation Xrotation Yrotation 
	JOINT Hips
	{
		OFFSET 4.5925 91.4895 -427.239
		CHANNELS 6 Xposition Yposition Zposition Zrotation Xrotation Yrotation 
		JOINT Spine
		{
			OFFSET 15.7357 0.0 0.0
			CHANNELS 6 Xposition Yposition Zposition Zrotation Xrotation Yrotation 
			JOINT Chest
			{
				OFFSET 8.98455 -0.406207 0.0
				CHANNELS 6 Xposition Yposition Zposition Zrotation Xrotation Yrotation 
				JOINT Neck
				{
					OFFSET 16.3773 0.0 0.0
					CHANNELS 6 Xposition Yposition Zposition Zrotation Xrotation Yrotation 
					JOINT Head
					{
						OFFSET 6.45672 0.0 0.0
						CHANNELS 6 Xposition Yposition Zposition Zrotation Xrotation Yrotation 
						End Site
						{
							OFFSET 0.0 0.0 0.0
						}
					}
				}
				JOINT Shoulder_L
				{
					OFFSET 12.9942 -0.242716 4.98039
					CHANNELS 6 Xposition Yposition Zposition Zrotation Xrotation Yrotation 
					JOINT UpperArm_L
					{
						OFFSET 5.34809 0.0 0.0
						CHANNELS 6 Xposition Yposition Zposition Zrotation Xrotation Yrotation 
						JOINT LowerArm_L
						{
							OFFSET 24.3286 1.87007e-05 0.0
							CHANNELS 6 Xposition Yposition Zposition Zrotation Xrotation Yrotation 
							JOINT Hand_L
							{
								OFFSET 22.2916 0.0 0.0
								CHANNELS 6 Xposition Yposition Zposition Zrotation Xrotation Yrotation 
								End Site
								{
									OFFSET 0.0 0.0 0.0
								}
							}
						}
					}
				}
				JOINT Shoulder_R
				{
					OFFSET 12.9945 -0.242716 -4.98039
					CHANNELS 6 Xposition Yposition Zposition Zrotation Xrotation Yrotation 
					JOINT UpperArm_R
					{
						OFFSET -5.34813 0.0 0.0
						CHANNELS 6 Xposition Yposition Zposition Zrotation Xrotation Yrotation 
						JOINT LowerArm_R
						{
							OFFSET -24.3289 0.000322201 0.0
							CHANNELS 6 Xposition Yposition Zposition Zrotation Xrotation Yrotation 
							JOINT Hand_R
							{
								OFFSET -22.2915 -0.000108084 0.0
								CHANNELS 6 Xposition Yposition Zposition Zrotation Xrotation Yrotation 
								End Site
								{
									OFFSET 0.0 0.0 0.0
								}
							}
						}
					}
				}
			}
		}
		JOINT UpperLeg_L
		{
			OFFSET -2.19248 -6.46944 0.0
			CHANNELS 6 Xposition Yposition Zposition Zrotation Xrotation Yrotation 
			JOINT LowerLeg_L
			{
				OFFSET 39.0811 0.0 -1.23785e-05
				CHANNELS 6 Xposition Yposition Zposition Zrotation Xrotation Yrotation 
				JOINT Foot_L
				{
					OFFSET 40.9854 0.0 -1.26872e-05
					CHANNELS 6 Xposition Yposition Zposition Zrotation Xrotation Yrotation 
					JOINT Toes_L
					{
						OFFSET 11.7543 0.0 0.0
						CHANNELS 6 Xposition Yposition Zposition Zrotation Xrotation Yrotation 
						End Site
						{
							OFFSET 0.0 0.0 0.0
						}
					}
				}
			}
		}
		JOINT UpperLeg_R
		{
			OFFSET -2.19251 6.46944 0.0
			CHANNELS 6 Xposition Yposition Zposition Zrotation Xrotation Yrotation 
			JOINT LowerLeg_R
			{
				OFFSET -39.0811 -0.00228153 -0.0401928
				CHANNELS 6 Xposition Yposition Zposition Zrotation Xrotation Yrotation 
				JOINT Foot_R
				{
					OFFSET -40.9854 0.0 0.0
					CHANNELS 6 Xposition Yposition Zposition Zrotation Xrotation Yrotation 
					JOINT Toes_R
					{
						OFFSET -11.7543 0.0 0.0
						CHANNELS 6 Xposition Yposition Zposition Zrotation Xrotation Yrotation 
						End Site
						{
							OFFSET 0.0 0.0 0.0
						}
					}
				}
			}
		}
	}
}
MOTION
Frames:	5
Frame Time:	0.0333333
0.000000 0.000000 0.000000 0.000000 0.000000 -0.000000 126.243000 91.861700 0.471986 90.061200 -2.729900 0.700488 15.735700 0.000005 -0.000001 106.390000 84.001600 -106.268000 8.984550 -0.406207 -0.000000 3.745260 3.376340 0.132023 16.377300 -0.000001 -0.000001 -2.508650 -2.367340 1.526090 6.456720 -0.000001 -0.000000 -9.197200 -5.124840 6.769440 12.994200 -0.242716 4.980390 -91.202800 3.652910 -71.760500 5.348090 -0.000007 -0.000001 -72.772300 12.991900 4.819790 24.328600 0.000019 0.000005 6.501610 32.858200 -11.862400 22.291600 -0.000001 0.000005 12.172400 5.022830 6.829520 12.994500 -0.242716 -4.980390 88.749900 8.996920 -82.056200 -5.348130 -0.000001 -0.000004 -47.536500 17.810300 -33.227600 -24.328900 0.000322 -0.000009 1.607000 2.523410 -32.523400 -22.291500 -0.000108 -0.000004 19.068000 5.422550 -3.684180 -2.192480 -6.469440 -0.000000 -176.360000 -12.807100 -20.630900 39.081100 -0.000007 -0.000012 0.024764 -0.045634 28.486400 40.985400 -0.000006 -0.000013 2.398540 -2.253820 -58.837800 11.754300 -0.000000 0.000003 -0.004317 -0.054702 -18.802100 -2.192510 6.469440 -0.000001 170.202000 31.623800 -173.048000 -39.081100 -0.002282 -0.040193 -0.016629 0.056866 19.333600 -40.985400 0.000008 0.000006 6.649640 26.565200 -69.742700 -11.754300 -0.000006 -0.000006 -0.012517 -0.121568 -21.529700
0.000000 0.000000 0.000000 0.000000 0.000000 -0.000000 126.695000 91.591400 2.683640 89.615300 -2.763880 0.274264 15.735700 0.000005 -0.000001 108.703000 84.039800 -108.668000 8.984550 -0.406207 -0.000000 3.530410 3.816370 -0.047919 16.377300 -0.000001 -0.000001 -2.957290 -2.534410 1.312640 6.456720 -0.000001 -0.000000 -9.673790 -5.528800 6.013330 12.994200 -0.242716 4.980390 -91.192200 3.648080 -71.888600 5.348090 -0.000007 -0.000001 -72.181000 10.933500 6.817960 24.328600 0.000019 0.000005 6.136120 32.820000 -11.219000 22.291600 -0.000001 0.000005 12.050600 5.000770 7.303200 12.994500 -0.242716 -4.980390 88.813700 8.863970 -82.346200 -5.348130 -0.000001 -0.000004 -46.867200 15.954300 -33.616800 -24.328900 0.000322 -0.000009 1.789800 2.573770 -34.849100 -22.291500 -0.000108 -0.000004 19.871600 5.428790 -3.896920 -2.192480 -6.469440 -0.000000 -177.057000 -14.876500 -20.672800 39.081100 -0.000007 -0.000012 -0.007248 0.021533 18.603200 40.985400 -0.000006 -0.000013 -1.797630 1.489090 -56.817200 11.754300 -0.000000 0.000003 -0.003862 -0.050008 -18.610900 -2.192510 6.469440 -0.000001 169.520000 31.526900 -172.364000 -39.081100 -0.002282 -0.040193 -0.022012 0.068467 20.304700 -40.985400 0.000008 0.000006 6.389400 27.055500 -69.609600 -11.754300 -0.000006 -0.000006 -0.018982 -0.161583 -23.172900
0.000000 0.000000 0.000000 0.000000 0.000000 -0.000000 127.306000 91.169500 5.249570 89.081600 -2.766050 0.265269 15.735700 0.000005 -0.000001 109.495000 83.979900 -109.506000 8.984550 -0.406207 -0.000000 3.591830 4.013460 -0.147778 16.377300 -0.000001 -0.000001 -3.366480 -2.557250 1.098770 6.456720 -0.000001 -0.000000 -10.197400 -5.668140 5.308130 12.994200 -0.242716 4.980390 -91.189500 3.675140 -72.051800 5.348090 -0.000007 -0.000001 -71.826700 10.042500 8.590480 24.328600 0.000019 0.000005 6.096330 32.402400 -11.272000 22.291600 -0.000001 0.000005 11.724700 5.013560 7.028820 12.994500 -0.242716 -4.980390 88.861100 8.846100 -82.633900 -5.348130 -0.000001 -0.000004 -46.295200 14.768700 -33.588600 -24.328900 0.000322 -0.000009 1.655780 2.228950 -36.642700 -22.291500 -0.000108 -0.000004 20.464500 5.438570 -4.235120 -2.192480 -6.469440 -0.000000 -178.887000 -17.422200 -22.681600 39.081100 -0.000007 -0.000012 0.034420 -0.121898 15.768000 40.985400 -0.000006 -0.000013 -0.080509 3.525680 -57.451400 11.754300 -0.000000 0.000003 -0.004304 -0.054572 -18.796800 -2.192510 6.469440 -0.000001 168.982000 29.933200 -171.658000 -39.081100 -0.002282 -0.040193 -0.024598 0.068750 22.099600 -40.985400 0.000008 0.000006 6.010680 26.134900 -69.478800 -11.754300 -0.000006 -0.000006 -0.028694 -0.211416 -25.231200
0.000000 0.000000 0.000000 0.000000 0.000000 -0.000000 128.161000 90.688200 8.156830 89.156100 -2.701890 0.315168 15.735700 0.000005 -0.000001 108.766000 83.959200 -109.017000 8.984550 -0.406207 -0.000000 3.688950 3.890630 -0.626095 16.377300 -0.000001 -0.000001 -3.510980 -2.531730 0.964602 6.456720 -0.000001 -0.000000 -10.955600 -5.580640 4.578800 12.994200 -0.242716 4.980390 -91.245600 3.885030 -72.208000 5.348090 -0.000007 -0.000001 -71.704500 10.217100 9.718390 24.328600 0.000019 0.000005 6.043240 32.046400 -11.283500 22.291600 -0.000001 0.000005 11.473700 5.027310 6.732700 12.994500 -0.242716 -4.980390 88.859500 9.083340 -82.812900 -5.348130 -0.000001 -0.000004 -45.582400 14.461500 -33.456100 -24.328900 0.000322 -0.000009 1.136980 1.483930 -37.494000 -22.291500 -0.000108 -0.000004 20.839800 5.447430 -4.547350 -2.192480 -6.469440 -0.000000 179.939000 -17.220800 -24.566600 39.081100 -0.000007 -0.000012 0.037560 -0.120806 17.271100 40.985400 -0.000006 -0.000013 1.371650 1.314100 -56.618700 11.754300 -0.000000 0.000003 -0.003607 -0.047299 -18.500600 -2.192510 6.469440 -0.000001 167.988000 27.395500 -171.098000 -39.081100 -0.002282 -0.040193 -0.020516 0.052781 24.298300 -40.985400 0.000008 0.000006 5.349120 24.355200 -69.278400 -11.754300 -0.000006 -0.000006 -0.041608 -0.266456 -27.523300
0.000000 0.000000 0.000000 0.000000 0.000000 -0.000000 129.175000 90.089900 11.609600 89.541100 -3.157650 0.439551 15.735700 0.000005 -0.000001 109.392000 84.025300 -109.996000 8.984550 -0.406207 -0.000000 3.534020 3.984940 -1.329380 16.377300 -0.000001 -0.000001 -3.274300 -2.502580 0.892361 6.456720 -0.000001 -0.000000 -11.373100 -5.423620 3.832230 12.994200 -0.242716 4.980390 -91.314700 4.091770 -72.171200 5.348090 -0.000007 -0.000001 -71.791600 11.308200 10.160100 24.328600 0.000019 0.000005 5.863490 32.077500 -10.944500 22.291600 -0.000001 0.000005 11.081200 5.034790 6.570370 12.994500 -0.242716 -4.980390 88.800600 9.367480 -82.670700 -5.348130 -0.000001 -0.000004 -44.998600 15.419000 -32.851800 -24.328900 0.000322 -0.000009 0.641210 0.838378 -37.457900 -22.291500 -0.000108 -0.000004 20.860000 5.454270 -4.793220 -2.192480 -6.469440 -0.000000 -179.893000 -14.641300 -26.358800 39.081100 -0.000007 -0.000012 0.030771 -0.070561 23.561700 40.985400 -0.000006 -0.000013 1.121120 1.226550 -52.595000 11.754300 -0.000000 0.000003 -0.003873 -0.050120 -18.615500 -2.192510 6.469440 -0.000001 166.830000 23.855800 -170.651000 -39.081100 -0.002282 -0.040193 -0.007534 0.021364 26.907400 -40.985400 0.000008 0.000006 4.742680 22.187000 -68.864100 -11.754300 -0.000006 -0.000006 -0.060968 -0.334907 -30.407400
